<?xml version="1.0" encoding="UTF-8" standalone="no"?><!-- Generator: Gravit.io --><svg xmlns="http://www.w3.org/2000/svg" xmlns:xlink="http://www.w3.org/1999/xlink" style="isolation:isolate" viewBox="0 0 800 800" width="800pt" height="800pt"><defs><clipPath id="_clipPath_OrWx3GdggBqJeUk5k1N8ul1xNISz3P0k"><rect width="800" height="800"/></clipPath></defs><g clip-path="url(#_clipPath_OrWx3GdggBqJeUk5k1N8ul1xNISz3P0k)"><circle vector-effect="non-scaling-stroke" cx="400" cy="400" r="400" fill="rgb(2,135,65)"/><defs><filter id="d4phMZJ95s3bl6pt3u6RYEtPO3R4sjWB" x="-200%" y="-200%" width="400%" height="400%" filterUnits="objectBoundingBox" color-interpolation-filters="sRGB"><feOffset xmlns="http://www.w3.org/2000/svg" in="SourceGraphic" dx="0" dy="0"/><feGaussianBlur xmlns="http://www.w3.org/2000/svg" stdDeviation="2.146804531419514" result="pf_100_offsetBlur"/><feComposite xmlns="http://www.w3.org/2000/svg" in="SourceGraphic" in2="pf_100_offsetBlur" result="pf_100_inverse" operator="out"/><feFlood xmlns="http://www.w3.org/2000/svg" flood-color="#000000" flood-opacity="0.5" result="pf_100_color"/><feComposite xmlns="http://www.w3.org/2000/svg" in="pf_100_color" in2="pf_100_inverse" operator="in" result="pf_100_shadow"/><feComposite xmlns="http://www.w3.org/2000/svg" in="pf_100_shadow" in2="SourceGraphic" operator="over"/></filter></defs><g filter="url(#d4phMZJ95s3bl6pt3u6RYEtPO3R4sjWB)"><path d="M 220.73 150 L 579.27 150 C 579.27 189.037 610.963 220.73 650 220.73 L 650 579.27 C 610.963 579.27 579.27 610.963 579.27 650 L 220.73 650 C 220.73 610.963 189.037 579.27 150 579.27 L 150 220.73 C 189.037 220.73 220.73 189.037 220.73 150 Z" style="stroke:none;fill:#02D464;stroke-miterlimit:10;"/></g><g opacity="0"><rect x="200" y="200" width="400" height="400" transform="matrix(1,0,0,1,0,0)" fill="rgb(255,255,255)"/></g><polygon points="500,300,300,300,400,200" fill="rgb(255,255,255)"/><polygon points="550,400,250,400,400,250" fill="rgb(255,255,255)"/><polygon points="600,500,200,500,400,350" fill="rgb(255,255,255)"/><polygon points="350,550,450,550,400,600" fill="rgb(255,255,255)"/><rect x="350" y="490" width="100" height="60" transform="matrix(1,0,0,1,0,0)" fill="rgb(255,255,255)"/></g></svg>